<svg xmlns="http://www.w3.org/2000/svg" viewBox="0 0 32 32" style="margin-right: 10px;" width="35px" height="35px">
    <path d="M17.937 5.158a6.474 6.474 0 0 1-1.715 5.242l-2.758 2.963a2 2 0 0 1-2.927 0L7.777 10.4a6.638 6.638 0 0 1-1.044-1.498 12.996 12.996 0 1 0 11.204-3.744zM21.55 21.89l1.52.76.38 3.44a10.948 10.948 0 0 1-5.33 2.71l-1.16-4.07a.99.99 0 0 0-.8-.72l-6-1a1.08 1.08 0 0 0-.4.02l-3.1.78A10.949 10.949 0 0 1 5 18a11.172 11.172 0 0 1 .17-1.93l1.21.72 2.91 2.92a1.028 1.028 0 0 0 1.03.24l3-1a.962.962 0 0 0 .51-.4L15.54 16H19a.998.998 0 0 0 .98-.8l.91-4.56 2.06-1.17a10.957 10.957 0 0 1 3.18 4.25l-3.68 2.45a1.004 1.004 0 0 0-.42.59l-1 4a.996.996 0 0 0 .52 1.13z" style="fill:#00CCCC"/>
    <path d="M11.268 12.682a1 1 0 0 0 1.464 0l2.759-2.963a5.312 5.312 0 0 0 1.007-5.912 4.953 4.953 0 0 0-3.86-2.77 5.323 5.323 0 0 0-1.271 0 4.953 4.953 0 0 0-3.865 2.77A5.313 5.313 0 0 0 8.51 9.72zM12 4a2 2 0 1 1-2 2 2 2 0 0 1 2-2z" style="fill:#00CCCC"/>
</svg>